<svg width="32" height="24" viewBox="0 0 32 24" fill="none" xmlns="http://www.w3.org/2000/svg">
<g id="Group 1171281464">
<path id="Vector" d="M21.3451 13.8317C23.4482 13.8317 26.491 13.4017 26.491 10.9217C26.4973 10.7303 26.4798 10.5388 26.4389 10.3517L25.1864 4.95833C24.8973 3.77167 24.6434 3.23333 22.5421 2.19167C20.9114 1.365 17.3592 0 16.3085 0C15.3301 0 15.046 1.25 13.8793 1.25C12.7563 1.25 11.9225 0.316667 10.8718 0.316667C9.86309 0.316667 9.20578 0.998333 8.69808 2.4C8.69808 2.4 7.28427 6.35333 7.10271 6.92667C7.07385 7.03195 7.06138 7.14098 7.06572 7.25C7.06572 8.78667 13.1682 13.825 21.3451 13.825M26.8138 11.9283C27.1046 13.2933 27.1046 13.4367 27.1046 13.6167C27.1046 15.95 24.4585 17.245 20.9803 17.245C13.1194 17.25 6.23357 12.6833 6.23357 9.665C6.23312 9.24486 6.31951 8.82909 6.48742 8.44333C3.65978 8.58333 0 9.08333 0 12.2867C0 17.5333 12.5394 24 22.4681 24C30.0802 24 32 20.5867 32 17.8917C32 15.7717 30.1508 13.365 26.8171 11.9283" fill="#EE0000"/>
<path id="Vector_2" d="M26.8214 11.9266C27.1122 13.2916 27.1122 13.435 27.1122 13.615C27.1122 15.9483 24.4662 17.2433 20.9879 17.2433C13.1271 17.2483 6.24121 12.6816 6.24121 9.66331C6.24076 9.24317 6.32715 8.82739 6.49506 8.44164L7.11035 6.93164C7.08216 7.03478 7.0697 7.14151 7.07336 7.24831C7.07336 8.78497 13.1758 13.8233 21.3527 13.8233C23.4558 13.8233 26.4986 13.3933 26.4986 10.9133C26.5049 10.7219 26.4874 10.5305 26.4465 10.3433L26.8214 11.9266Z" fill="black"/>
</g>
</svg>
