<svg width="32" height="32" viewBox="0 0 32 32" fill="none" xmlns="http://www.w3.org/2000/svg">
<rect width="32" height="32" rx="4" fill="#109057"/>
<path d="M24 15.2686V16.0046C23.999 17.7297 23.4404 19.4083 22.4075 20.79C21.3745 22.1718 19.9226 23.1826 18.2683 23.6717C16.6139 24.1608 14.8458 24.1021 13.2276 23.5042C11.6093 22.9064 10.2277 21.8015 9.28877 20.3542C8.34981 18.907 7.90383 17.195 8.01734 15.4736C8.13085 13.7522 8.79776 12.1136 9.91862 10.8022C11.0395 9.49083 12.5542 8.57688 14.2369 8.1967C15.9197 7.81651 17.6802 7.99045 19.256 8.69258" stroke="white" stroke-width="1.5" stroke-linecap="round" stroke-linejoin="round"/>
<path d="M24.0016 9.60547L16.0016 17.6135L13.6016 15.2135" stroke="white" stroke-width="1.5" stroke-linecap="round" stroke-linejoin="round"/>
</svg>
