<svg width="32" height="32" viewBox="0 0 32 32" fill="none" xmlns="http://www.w3.org/2000/svg">
<rect width="32" height="32" rx="4" fill="#109057"/>
<path d="M10.1667 13.5V19.3333" stroke="white" stroke-width="1.5" stroke-linecap="round" stroke-linejoin="round"/>
<path d="M10.3751 13.0834C11.8709 13.0834 13.0834 11.8709 13.0834 10.3751C13.0834 8.87931 11.8709 7.66675 10.3751 7.66675C8.87931 7.66675 7.66675 8.87931 7.66675 10.3751C7.66675 11.8709 8.87931 13.0834 10.3751 13.0834Z" stroke="white" stroke-width="1.5" stroke-linecap="round" stroke-linejoin="round"/>
<path d="M10.1667 24.3333C11.5475 24.3333 12.6667 23.214 12.6667 21.8333C12.6667 20.4525 11.5475 19.3333 10.1667 19.3333C8.78604 19.3333 7.66675 20.4525 7.66675 21.8333C7.66675 23.214 8.78604 24.3333 10.1667 24.3333Z" stroke="white" stroke-width="1.5" stroke-linecap="round" stroke-linejoin="round"/>
<path d="M21.8333 24.3333C23.214 24.3333 24.3333 23.214 24.3333 21.8333C24.3333 20.4525 23.214 19.3333 21.8333 19.3333C20.4525 19.3333 19.3333 20.4525 19.3333 21.8333C19.3333 23.214 20.4525 24.3333 21.8333 24.3333Z" stroke="white" stroke-width="1.5" stroke-linecap="round" stroke-linejoin="round"/>
<path d="M10.2749 13.5C10.6499 14.9583 11.9832 16.0417 13.5582 16.0333L16.4166 16.025C18.5999 16.0167 20.4582 17.4167 21.1416 19.3667" stroke="white" stroke-width="1.5" stroke-linecap="round" stroke-linejoin="round"/>
</svg>
