<svg width="24" height="24" viewBox="0 0 24 24" fill="none" xmlns="http://www.w3.org/2000/svg">
<g id="Ansible_logo 1" clip-path="url(#clip0_292_450)">
<path id="Vector" d="M23.9889 12.0345C23.9889 18.6656 18.6349 24.0406 12.0296 24.0406C5.42493 24.0406 0.0703125 18.6656 0.0703125 12.0345C0.0703125 5.40393 5.42495 0.0283203 12.0296 0.0283203C18.6349 0.0283203 23.9889 5.40395 23.9889 12.0345Z" fill="#1A1918"/>
<path id="Vector_2" d="M12.2289 7.36283L15.3237 15.0312L10.649 11.3345L12.2289 7.36283ZM17.7268 16.7977L12.9663 5.29629C12.8304 4.96458 12.5587 4.78906 12.2289 4.78906C11.8985 4.78906 11.6069 4.96458 11.4711 5.29629L6.24609 17.9118H8.03347L10.1018 12.7104L16.2742 17.7165C16.5224 17.918 16.7016 18.0091 16.9344 18.0091C17.4007 18.0091 17.8083 17.6582 17.8083 17.1516C17.8083 17.0692 17.7793 16.9384 17.7268 16.7977Z" fill="white"/>
</g>
<defs>
<clipPath id="clip0_292_450">
<rect width="24" height="24" fill="white"/>
</clipPath>
</defs>
</svg>
