<svg width="40" height="40" viewBox="0 0 40 40" fill="none" xmlns="http://www.w3.org/2000/svg">
<rect x="0.5" y="0.5" width="39" height="39" rx="7.5" fill="#17193B"/>
<rect x="0.5" y="0.5" width="39" height="39" rx="7.5" stroke="#282B4D"/>
<g clip-path="url(#clip0_292_458)">
<path d="M14.1753 17.8151C14.1753 18.1437 14.2108 18.4102 14.273 18.6056C14.344 18.801 14.4329 19.0141 14.5572 19.245C14.6016 19.3161 14.6194 19.3872 14.6194 19.4493C14.6194 19.5381 14.5661 19.627 14.4506 19.7158L13.8911 20.0888C13.8111 20.1421 13.7312 20.1687 13.6602 20.1687C13.5713 20.1687 13.4825 20.1243 13.3937 20.0444C13.2694 19.9112 13.1628 19.7691 13.074 19.627C12.9852 19.476 12.8963 19.3072 12.7986 19.1029C12.1059 19.92 11.2355 20.3286 10.1875 20.3286C9.44141 20.3286 8.84634 20.1154 8.41114 19.6891C7.97595 19.2628 7.75391 18.6944 7.75391 17.9839C7.75391 17.2289 8.02035 16.6161 8.56213 16.1543C9.10391 15.6924 9.82331 15.4615 10.7381 15.4615C11.0401 15.4615 11.3509 15.4881 11.6796 15.5325C12.0082 15.577 12.3457 15.648 12.7009 15.7279V15.0796C12.7009 14.4046 12.5588 13.9339 12.2835 13.6585C11.9993 13.3832 11.5197 13.25 10.8358 13.25C10.525 13.25 10.2052 13.2855 9.8766 13.3654C9.54798 13.4454 9.22825 13.5431 8.91739 13.6674C8.77529 13.7296 8.66871 13.7651 8.60654 13.7829C8.54437 13.8006 8.49996 13.8095 8.46443 13.8095C8.34009 13.8095 8.27792 13.7207 8.27792 13.5342V13.099C8.27792 12.9569 8.29568 12.8503 8.34009 12.7881C8.3845 12.726 8.46443 12.6638 8.58877 12.6016C8.89963 12.4418 9.27266 12.3085 9.70785 12.202C10.1431 12.0865 10.6049 12.0332 11.0934 12.0332C12.1503 12.0332 12.923 12.273 13.4204 12.7526C13.9088 13.2322 14.1575 13.9605 14.1575 14.9375V17.8151H14.1753ZM10.5694 19.1651C10.8625 19.1651 11.1644 19.1118 11.4842 19.0052C11.8039 18.8987 12.0881 18.7033 12.3279 18.4368C12.47 18.2681 12.5766 18.0816 12.6299 17.8684C12.6832 17.6552 12.7187 17.3977 12.7187 17.0957V16.7227C12.4611 16.6605 12.1858 16.6072 11.9016 16.5717C11.6174 16.5362 11.3421 16.5184 11.0667 16.5184C10.4717 16.5184 10.0365 16.6339 9.74338 16.8737C9.45029 17.1135 9.30818 17.451 9.30818 17.895C9.30818 18.3125 9.41476 18.6233 9.6368 18.8365C9.84996 19.0585 10.1608 19.1651 10.5694 19.1651ZM17.7013 20.1243C17.5414 20.1243 17.4348 20.0977 17.3638 20.0355C17.2927 19.9822 17.2305 19.8579 17.1773 19.6891L15.0901 12.8237C15.0368 12.646 15.0102 12.5306 15.0102 12.4684C15.0102 12.3263 15.0812 12.2464 15.2233 12.2464H16.0937C16.2625 12.2464 16.3779 12.273 16.4401 12.3352C16.5111 12.3885 16.5644 12.5128 16.6177 12.6816L18.1098 18.5612L19.4954 12.6816C19.5398 12.5039 19.593 12.3885 19.6641 12.3352C19.7352 12.2819 19.8595 12.2464 20.0194 12.2464H20.7299C20.8986 12.2464 21.0141 12.273 21.0852 12.3352C21.1562 12.3885 21.2184 12.5128 21.2539 12.6816L22.6572 18.6322L24.1937 12.6816C24.247 12.5039 24.3092 12.3885 24.3713 12.3352C24.4424 12.2819 24.5578 12.2464 24.7177 12.2464H25.5437C25.6858 12.2464 25.7657 12.3174 25.7657 12.4684C25.7657 12.5128 25.7569 12.5572 25.748 12.6105C25.7391 12.6638 25.7213 12.7348 25.6858 12.8325L23.5453 19.698C23.4921 19.8756 23.4299 19.9911 23.3588 20.0444C23.2878 20.0977 23.1723 20.1332 23.0213 20.1332H22.2575C22.0888 20.1332 21.9733 20.1066 21.9023 20.0444C21.8312 19.9822 21.769 19.8668 21.7335 19.6891L20.3569 13.9605L18.9891 19.6802C18.9447 19.8579 18.8914 19.9733 18.8204 20.0355C18.7493 20.0977 18.625 20.1243 18.4651 20.1243H17.7013ZM29.1141 20.3641C28.6523 20.3641 28.1904 20.3108 27.7463 20.2043C27.3023 20.0977 26.9559 19.9822 26.725 19.849C26.5828 19.7691 26.4852 19.6802 26.4496 19.6003C26.4141 19.5204 26.3963 19.4316 26.3963 19.3516V18.8987C26.3963 18.7122 26.4674 18.6233 26.6006 18.6233C26.6539 18.6233 26.7072 18.6322 26.7605 18.65C26.8138 18.6677 26.8937 18.7033 26.9825 18.7388C27.2845 18.872 27.6131 18.9786 27.9595 19.0497C28.3148 19.1207 28.6611 19.1562 29.0164 19.1562C29.5759 19.1562 30.0111 19.0585 30.3131 18.8631C30.6151 18.6677 30.775 18.3835 30.775 18.0194C30.775 17.7707 30.695 17.5664 30.5352 17.3977C30.3753 17.2289 30.0733 17.0779 29.6381 16.9358L28.3503 16.5362C27.7019 16.3319 27.2223 16.0299 26.9292 15.6302C26.6361 15.2395 26.4852 14.8043 26.4852 14.3424C26.4852 13.9694 26.5651 13.6408 26.725 13.3566C26.8848 13.0723 27.098 12.8237 27.3644 12.6283C27.6309 12.424 27.9328 12.273 28.2881 12.1664C28.6434 12.0598 29.0164 12.0154 29.4072 12.0154C29.6026 12.0154 29.8069 12.0243 30.0023 12.051C30.2065 12.0776 30.393 12.1131 30.5796 12.1487C30.7572 12.1931 30.9259 12.2375 31.0858 12.2908C31.2457 12.3441 31.37 12.3973 31.4588 12.4506C31.5832 12.5217 31.672 12.5927 31.7253 12.6727C31.7786 12.7437 31.8052 12.8414 31.8052 12.9658V13.3832C31.8052 13.5697 31.7342 13.6674 31.6009 13.6674C31.5299 13.6674 31.4144 13.6319 31.2634 13.5608C30.7572 13.3299 30.1888 13.2145 29.5582 13.2145C29.0519 13.2145 28.6523 13.2944 28.3769 13.4631C28.1016 13.6319 27.9595 13.8895 27.9595 14.2536C27.9595 14.5023 28.0483 14.7154 28.2259 14.8842C28.4036 15.0529 28.7322 15.2217 29.2029 15.3727L30.4641 15.7723C31.1036 15.9766 31.5654 16.2608 31.8407 16.625C32.1161 16.9891 32.2493 17.4066 32.2493 17.8684C32.2493 18.2503 32.1694 18.5967 32.0184 18.8987C31.8585 19.2006 31.6453 19.4671 31.37 19.6802C31.0947 19.9023 30.7661 20.0622 30.3842 20.1776C29.9845 20.302 29.5671 20.3641 29.1141 20.3641Z" fill="white"/>
<path fill-rule="evenodd" clip-rule="evenodd" d="M30.7914 24.6801C27.8694 26.8383 23.624 27.984 19.9736 27.984C14.8579 27.984 10.2483 26.0922 6.76674 22.9482C6.49141 22.6995 6.7401 22.362 7.06872 22.5574C10.8345 24.7422 15.4796 26.0656 20.2845 26.0656C23.5263 26.0656 27.0878 25.3906 30.3651 24.0051C30.8536 23.783 31.271 24.3248 30.7914 24.6801Z" fill="#FF9900"/>
<path fill-rule="evenodd" clip-rule="evenodd" d="M32.0083 23.2946C31.6353 22.815 29.5392 23.0636 28.5889 23.1791C28.3047 23.2146 28.2603 22.9659 28.5178 22.7794C30.1876 21.6071 32.932 21.9446 33.2517 22.3354C33.5715 22.735 33.1629 25.4794 31.5997 26.7939C31.3599 26.9982 31.129 26.8916 31.2356 26.6252C31.5909 25.7459 32.3813 23.7653 32.0083 23.2946Z" fill="#FF9900"/>
</g>
<defs>
<clipPath id="clip0_292_458">
<rect width="27" height="16.1645" fill="white" transform="translate(6.5 11.9178)"/>
</clipPath>
</defs>
</svg>
