<svg xmlns="http://www.w3.org/2000/svg" viewBox="0 0 48 48" width="48" height="48">
  <path fill="#0078D4" d="M24 4C12.95 4 4 12.95 4 24s8.95 20 20 20 20-8.95 20-20S35.05 4 24 4z"/>
  <path fill="#fff" d="M24 12c-6.63 0-12 5.37-12 12s5.37 12 12 12 12-5.37 12-12-5.37-12-12-12zm0 20c-4.42 0-8-3.58-8-8s3.58-8 8-8 8 3.58 8 8-3.58 8-8 8z"/>
  <circle fill="#50e6ff" cx="24" cy="24" r="4"/>
  <path fill="#fff" d="M24 14v4M24 30v4M14 24h4M30 24h4" stroke="#fff" stroke-width="2" stroke-linecap="round"/>
</svg>
