<svg width="40" height="40" viewBox="0 0 40 40" fill="none" xmlns="http://www.w3.org/2000/svg">
<rect x="0.5" y="0.5" width="39" height="39" rx="7.5" fill="#17193B"/>
<rect x="0.5" y="0.5" width="39" height="39" rx="7.5" stroke="#282B4D"/>
<g clip-path="url(#clip0_292_511)">
<path d="M28 8H12C9.79086 8 8 9.79086 8 12V28C8 30.2091 9.79086 32 12 32H28C30.2091 32 32 30.2091 32 28V12C32 9.79086 30.2091 8 28 8Z" fill="url(#paint0_linear_292_511)"/>
<path fill-rule="evenodd" clip-rule="evenodd" d="M24.5193 22.0332C24.5193 20.8604 23.5588 19.9063 22.3782 19.9063C21.1975 19.9063 20.2373 20.8604 20.2373 22.0332C20.2373 23.206 21.1975 24.1601 22.3782 24.1601C23.5588 24.1601 24.5193 23.206 24.5193 22.0332ZM25.1225 22.0332C25.1225 23.5364 23.8915 24.7593 22.3782 24.7593C20.8652 24.7593 19.6342 23.5364 19.6342 22.0332C19.6342 20.53 20.8652 19.3072 22.3782 19.3072C23.8915 19.3072 25.1225 20.53 25.1225 22.0332ZM27.6545 26.1421L25.5519 24.2608C25.3821 24.4983 25.1858 24.7152 24.9678 24.909L27.0673 26.79C27.2464 26.9506 27.5251 26.9356 27.687 26.7577C27.8481 26.5797 27.8336 26.3032 27.6545 26.1421ZM22.3782 25.2985C24.1909 25.2985 25.6656 23.8336 25.6656 22.0332C25.6656 20.2325 24.1909 18.7679 22.3782 18.7679C20.5657 18.7679 19.0911 20.2325 19.0911 22.0332C19.0911 23.8336 20.5657 25.2985 22.3782 25.2985ZM28.1352 27.1588C27.9295 27.385 27.6451 27.5 27.3601 27.5C27.1116 27.5 26.8625 27.4125 26.6638 27.2352L24.4807 25.2796C23.8737 25.669 23.1532 25.8976 22.3782 25.8976C20.2331 25.8976 18.4879 24.164 18.4879 22.0332C18.4879 19.9024 20.2331 18.1688 22.3782 18.1688C24.5236 18.1688 26.2687 19.9024 26.2687 22.0332C26.2687 22.6446 26.1213 23.221 25.8655 23.7353L28.0583 25.6972C28.4841 26.0798 28.5185 26.7349 28.1352 27.1588ZM14.3857 16.8178C14.3857 16.9735 14.3953 17.1287 14.4137 17.2788C14.4243 17.3642 14.3977 17.4495 14.3404 17.514C14.2949 17.5652 14.2337 17.599 14.1667 17.6104C13.4252 17.8006 12.2047 18.3764 12.2047 20.1037C12.2047 21.408 12.9288 22.1279 13.5364 22.5023C13.7439 22.6323 13.9894 22.7015 14.2484 22.7042L17.8851 22.7075L17.8845 23.3067L14.2451 23.3034C13.8715 23.2995 13.5168 23.1982 13.2168 23.0104C12.6145 22.6392 11.6016 21.7669 11.6016 20.1037C11.6016 18.0987 12.9815 17.3576 13.7916 17.0958C13.7855 17.0035 13.7825 16.9106 13.7825 16.8178C13.7825 15.1797 14.901 13.4809 16.3842 12.8665C18.1188 12.1445 19.9566 12.5025 21.2995 13.8233C21.7156 14.2325 22.0579 14.7295 22.3206 15.3043C22.6734 15.0141 23.1083 14.8538 23.5667 14.8538C24.4675 14.8538 25.4813 15.5329 25.662 17.0182C26.5055 17.2114 28.2878 17.8866 28.2878 20.1268C28.2878 21.0213 28.0055 21.76 27.4485 22.3226L27.0184 21.9023C27.4605 21.4559 27.6846 20.8586 27.6846 20.1268C27.6846 18.1673 26.0332 17.6799 25.3227 17.5616C25.2419 17.5481 25.1704 17.5026 25.1243 17.4355C25.0793 17.3708 25.0622 17.2914 25.0757 17.2144C24.9771 15.9981 24.2497 15.4529 23.5667 15.4529C23.1357 15.4529 22.7316 15.6614 22.4578 16.0251C22.3911 16.1132 22.2829 16.1581 22.1719 16.1419C22.0624 16.1258 21.9705 16.0509 21.9328 15.9475C21.6858 15.2678 21.3299 14.6962 20.8752 14.2493C19.7114 13.1046 18.12 12.7943 16.6167 13.4195C15.3655 13.9377 14.3857 15.4302 14.3857 16.8178Z" fill="white"/>
</g>
<defs>
<linearGradient id="paint0_linear_292_511" x1="8" y1="2408" x2="2408" y2="8" gradientUnits="userSpaceOnUse">
<stop stop-color="#B0084D"/>
<stop offset="1" stop-color="#FF4F8B"/>
</linearGradient>
<clipPath id="clip0_292_511">
<rect width="24" height="24" fill="white" transform="translate(8 8)"/>
</clipPath>
</defs>
</svg>
