<svg width="24" height="24" viewBox="0 0 24 24" fill="none" xmlns="http://www.w3.org/2000/svg">
<g id="docker-svgrepo-com 1" clip-path="url(#clip0_292_424)">
<path id="Vector" d="M12 24C18.6274 24 24 18.6274 24 12C24 5.37258 18.6274 0 12 0C5.37258 0 0 5.37258 0 12C0 18.6274 5.37258 24 12 24Z" fill="#0091E2"/>
<path id="Vector_2" d="M19.388 10.8164C19.3505 10.7859 19.0106 10.5305 18.2934 10.5305C18.1036 10.5305 17.9138 10.5445 17.7263 10.5797C17.588 9.62578 16.8005 9.16172 16.7653 9.14062L16.5731 9.02813L16.4466 9.21094C16.2872 9.45703 16.1723 9.72656 16.1044 10.0125C15.9755 10.5563 16.0528 11.0672 16.3294 11.5031C15.9966 11.6883 15.4598 11.7352 15.352 11.7375H6.49031C6.25828 11.7375 6.07078 11.925 6.07078 12.157C6.06141 12.9328 6.19266 13.7039 6.4575 14.4328C6.76219 15.2344 7.21688 15.8227 7.8075 16.1836C8.46844 16.5891 9.54422 16.8211 10.7653 16.8211C11.3161 16.8234 11.8669 16.7719 12.4083 16.6711C13.1606 16.5328 13.8848 16.2703 14.5505 15.893C15.0989 15.5742 15.5934 15.1711 16.013 14.6953C16.7137 13.9008 17.1333 13.0148 17.445 12.2297H17.5692C18.338 12.2297 18.8114 11.9227 19.0716 11.6648C19.245 11.5008 19.3809 11.3016 19.4677 11.0789L19.5216 10.9172L19.388 10.8164ZM7.31063 11.482H8.49891C8.55516 11.482 8.60203 11.4352 8.60203 11.3789V10.3219C8.60203 10.2656 8.55516 10.2187 8.49891 10.2164H7.31063C7.25438 10.2164 7.2075 10.2633 7.2075 10.3195V11.3789C7.2075 11.4375 7.25438 11.482 7.31063 11.482ZM8.94891 11.482H10.1372C10.1934 11.482 10.2403 11.4352 10.2403 11.3789V10.3219C10.2403 10.2656 10.1934 10.2187 10.1372 10.2164H8.94891C8.89031 10.2164 8.84344 10.2633 8.84344 10.3219V11.3789C8.84344 11.4375 8.89031 11.482 8.94891 11.482ZM10.6083 11.4844H11.7966C11.8528 11.4844 11.8997 11.4375 11.8997 11.3813V10.3242C11.8997 10.268 11.8528 10.2211 11.7966 10.2188H10.6083C10.552 10.2188 10.5052 10.2656 10.5052 10.3219V11.3813C10.5052 11.4375 10.552 11.482 10.6083 11.4844ZM12.2513 11.4844H13.4395C13.4958 11.4844 13.5427 11.4375 13.545 11.3813V10.3242C13.545 10.2656 13.4981 10.2188 13.4395 10.2188H12.2513C12.195 10.2188 12.1481 10.2656 12.1481 10.3219V11.3813C12.1481 11.4375 12.1927 11.4844 12.2513 11.4844ZM8.94656 9.96094H10.1348C10.1911 9.96094 10.238 9.91406 10.238 9.85547V8.79844C10.238 8.74219 10.1911 8.69531 10.1348 8.69531H8.94656C8.88797 8.69531 8.84344 8.74219 8.84109 8.79844V9.85547C8.84344 9.91406 8.89031 9.96094 8.94656 9.96094ZM10.6083 9.96094H11.7966C11.8528 9.96094 11.8997 9.91406 11.8997 9.85547V8.79844C11.8997 8.74219 11.8528 8.69531 11.7966 8.69531H10.6083C10.552 8.69531 10.5052 8.74219 10.5052 8.79844V9.85547C10.5052 9.91406 10.552 9.96094 10.6083 9.96094ZM12.2513 9.96094H13.4395C13.4981 9.96094 13.5427 9.91406 13.545 9.85547V8.79844C13.545 8.73984 13.4981 8.69531 13.4395 8.69531H12.2513C12.195 8.69531 12.1481 8.74219 12.1481 8.79844V9.85547C12.1481 9.91406 12.1927 9.96094 12.2513 9.96094ZM12.2513 8.43984H13.4395C13.4981 8.43984 13.545 8.39297 13.545 8.33438V7.275C13.545 7.21875 13.4981 7.17188 13.4395 7.17188H12.2513C12.195 7.17188 12.1481 7.21875 12.1481 7.275V8.33438C12.1481 8.39297 12.1927 8.43984 12.2513 8.43984ZM13.9059 11.4844H15.0942C15.1505 11.4844 15.1973 11.4375 15.1973 11.3813V10.3242C15.1973 10.2656 15.1505 10.2211 15.0942 10.2188H13.9059C13.8497 10.2188 13.8028 10.2656 13.8028 10.3219V11.3813C13.8028 11.4375 13.8497 11.4844 13.9059 11.4844Z" fill="white"/>
</g>
<defs>
<clipPath id="clip0_292_424">
<rect width="24" height="24" fill="white"/>
</clipPath>
</defs>
</svg>
