<svg width="40" height="40" viewBox="0 0 40 40" fill="none" xmlns="http://www.w3.org/2000/svg">
<rect x="0.5" y="0.5" width="39" height="39" rx="7.5" fill="#17193B"/>
<rect x="0.5" y="0.5" width="39" height="39" rx="7.5" stroke="#282B4D"/>
<path d="M17.5689 18.4176L22.5519 20.6879L27.5769 16.2824C27.6511 15.9184 27.6865 15.5476 27.6827 15.1761C27.6836 13.9769 27.3005 12.8089 26.5894 11.8432C25.8783 10.8776 24.8766 10.1651 23.7311 9.81012C22.5856 9.45515 21.3565 9.47639 20.224 9.87072C19.0915 10.265 18.115 11.0117 17.4377 12.0014L16.5977 16.3401L17.5689 18.4176Z" fill="#FED10A"/>
<path d="M12.4146 23.6896C12.3405 24.06 12.305 24.437 12.3089 24.8146C12.3105 26.0187 12.6978 27.1905 13.4139 28.1585C14.1299 29.1264 15.1372 29.8396 16.288 30.1935C17.4389 30.5473 18.6728 30.5233 19.809 30.1249C20.9453 29.7266 21.924 28.9747 22.6019 27.9796L23.4269 23.6604L22.3251 21.5446L17.3226 19.2646L12.4146 23.6896Z" fill="#24BBB1"/>
<path d="M12.3869 15.0693L15.8009 15.8748L16.5509 11.998C16.0871 11.645 15.5214 11.4518 14.9386 11.4473C14.3558 11.4429 13.7872 11.6275 13.3182 11.9735C12.8491 12.3195 12.5048 12.8081 12.3369 13.3663C12.169 13.9244 12.1866 14.5219 12.3869 15.0693Z" fill="#EF5098"/>
<path d="M12.0872 15.8877C11.3486 16.1305 10.7034 16.5961 10.2403 17.2206C9.7772 17.845 9.51892 18.5976 9.501 19.3748C9.48308 20.152 9.70639 20.9157 10.1402 21.5609C10.5741 22.206 11.1971 22.7009 11.9237 22.9774L16.7147 18.6499L15.8394 16.7749L12.0872 15.8877Z" fill="#17A8E0"/>
<path d="M23.4688 27.9791C23.9321 28.331 24.4969 28.5233 25.0787 28.5272C25.6605 28.5311 26.2279 28.3464 26.6959 28.0008C27.1639 27.6552 27.5073 27.1672 27.6747 26.61C27.8422 26.0528 27.8245 25.4564 27.6245 24.9101L24.2188 24.1113L23.4688 27.9791Z" fill="#93C83E"/>
<path d="M24.1619 23.2175L27.9119 24.0928C28.6515 23.8509 29.298 23.3855 29.7621 22.7609C30.2263 22.1362 30.4853 21.383 30.5035 20.605C30.5216 19.827 30.2981 19.0625 29.8636 18.4169C29.4292 17.7712 28.8052 17.2762 28.0776 17L23.1719 21.2998L24.1619 23.2175Z" fill="#0779A1"/>
</svg>
