<svg width="40" height="40" viewBox="0 0 40 40" fill="none" xmlns="http://www.w3.org/2000/svg">
<rect x="0.5" y="0.5" width="39" height="39" rx="7.5" fill="#17193B"/>
<rect x="0.5" y="0.5" width="39" height="39" rx="7.5" stroke="#282B4D"/>
<g clip-path="url(#clip0_292_467)">
<path d="M16.1467 27.2172L11.9336 19.9202L16.1467 12.623H24.5726L28.7856 19.9202L24.5725 27.2172H16.1467Z" fill="#CAC9C2"/>
<path d="M20.4987 23.2513C18.6879 23.2513 17.2148 21.7782 17.2148 19.9674C17.2148 18.1567 18.6879 16.6836 20.4987 16.6836C22.3094 16.6836 23.7825 18.1567 23.7825 19.9674C23.7825 21.7782 22.3094 23.2513 20.4987 23.2513Z" fill="white"/>
<path d="M27.1045 10.1763C26.8462 9.72909 26.2124 9.36328 25.6962 9.36328H15.314C14.7976 9.36328 14.1639 9.72919 13.9058 10.1763L10.8721 15.4308C10.8483 15.7703 10.9106 16.1248 11.0603 16.3839L13.1138 19.8949L16.7795 13.562H28.3661C28.6402 13.562 28.9469 13.6658 29.2136 13.8293L27.1045 10.1763Z" fill="#5072AA"/>
<path d="M11.0049 15.2012L10.8721 15.4311C10.8483 15.7706 10.9106 16.1252 11.0602 16.3843L13.1137 19.8952L14.2063 18.008L11.0049 15.2012Z" fill="#4D6796"/>
<path d="M15.5828 12.063C15.4148 12.0628 15.2538 11.996 15.135 11.8772C15.0162 11.7585 14.9494 11.5974 14.9492 11.4295C14.9494 11.2615 15.0162 11.1005 15.135 10.9817C15.2538 10.8629 15.4148 10.7961 15.5828 10.7959C15.7508 10.796 15.9118 10.8628 16.0306 10.9816C16.1494 11.1004 16.2163 11.2615 16.2164 11.4295C16.2162 11.5974 16.1494 11.7585 16.0306 11.8773C15.9118 11.996 15.7508 12.0628 15.5828 12.063ZM25.9648 11.4295C25.9658 11.5071 25.9514 11.5842 25.9223 11.6562C25.8933 11.7283 25.8502 11.7938 25.7957 11.8491C25.7411 11.9044 25.6761 11.9482 25.6044 11.9782C25.5328 12.0081 25.4559 12.0236 25.3782 12.0236C25.3005 12.0236 25.2236 12.0081 25.152 11.9782C25.0803 11.9482 25.0153 11.9044 24.9607 11.8491C24.9062 11.7938 24.8631 11.7283 24.8341 11.6562C24.805 11.5842 24.7906 11.5071 24.7916 11.4295C24.7935 11.2752 24.8562 11.1278 24.966 11.0194C25.0758 10.911 25.2239 10.8502 25.3782 10.8502C25.5325 10.8502 25.6806 10.911 25.7904 11.0194C25.9002 11.1278 25.9629 11.2752 25.9648 11.4295Z" fill="white"/>
<path d="M32.2953 19.1682L29.2133 13.8297C28.9466 13.6662 28.6399 13.5625 28.3657 13.5625H24.1875L27.8003 19.9304L22.0805 30.0361C21.9546 30.2539 21.7393 30.4522 21.4922 30.5986H25.6958C26.2122 30.5986 26.846 30.2327 27.1042 29.7856L32.2953 20.7943C32.5536 20.3471 32.5536 19.6154 32.2953 19.1682Z" fill="#CC4232"/>
<path d="M29.3513 14.0692L29.2131 13.8297C28.9466 13.6662 28.6399 13.5625 28.3658 13.5625H24.1875L25.275 15.4794L29.3513 14.0692Z" fill="#B23F33"/>
<path d="M25.3757 29.0458C25.2078 29.0456 25.0467 28.9788 24.9279 28.86C24.8092 28.7412 24.7424 28.5802 24.7422 28.4122C24.7424 28.2442 24.8092 28.0832 24.928 27.9644C25.0467 27.8456 25.2078 27.7788 25.3757 27.7786C25.5437 27.7788 25.7048 27.8456 25.8236 27.9644C25.9424 28.0831 26.0092 28.2442 26.0094 28.4122C26.0092 28.5802 25.9424 28.7412 25.8236 28.86C25.7048 28.9788 25.5438 29.0457 25.3757 29.0458ZM30.3066 20.6012C30.1386 20.601 29.9775 20.5342 29.8588 20.4154C29.74 20.2966 29.6731 20.1355 29.673 19.9675C29.6732 19.7996 29.74 19.6385 29.8588 19.5197C29.9776 19.401 30.1386 19.3342 30.3066 19.334C30.4746 19.3342 30.6356 19.401 30.7544 19.5198C30.8732 19.6385 30.94 19.7996 30.9402 19.9675C30.94 20.1355 30.8732 20.2966 30.7545 20.4154C30.6357 20.5342 30.4746 20.601 30.3066 20.6012Z" fill="white"/>
<path d="M16.8618 26.2988L11.0627 16.3838C10.9131 16.1247 10.8508 15.7701 10.8745 15.4307L8.71708 19.1675C8.45889 19.6147 8.45889 20.3464 8.71708 20.7936L13.9082 29.7849C14.1663 30.232 14.8 30.5978 15.3164 30.5978H21.4949C21.742 30.4516 21.9573 30.2533 22.0832 30.0353L24.1981 26.2987H16.8618" fill="#ECB02A"/>
<path d="M21.1445 30.5979H21.5039C21.7511 30.4517 21.9663 30.2534 22.0921 30.0354L24.2071 26.2988H21.9548L21.1445 30.5979Z" fill="#C79732"/>
<path d="M15.585 29.0449C15.417 29.0447 15.2559 28.9778 15.1372 28.859C15.0184 28.7402 14.9516 28.5792 14.9514 28.4112C14.9516 28.2432 15.0184 28.0822 15.1372 27.9634C15.256 27.8446 15.417 27.7778 15.585 27.7776C15.753 27.7778 15.914 27.8446 16.0328 27.9634C16.1516 28.0821 16.2185 28.2432 16.2186 28.4112C16.2185 28.5792 16.1517 28.7403 16.0329 28.8591C15.9141 28.9779 15.753 29.0447 15.585 29.0449ZM10.6454 20.6002C10.4774 20.6001 10.3163 20.5332 10.1975 20.4144C10.0787 20.2956 10.0119 20.1346 10.0117 19.9666C10.0119 19.7986 10.0787 19.6375 10.1975 19.5188C10.3163 19.4 10.4774 19.3332 10.6454 19.333C10.8133 19.3332 10.9744 19.4 11.0932 19.5188C11.2119 19.6376 11.2787 19.7986 11.2789 19.9666C11.2788 20.1346 11.212 20.2956 11.0932 20.4144C10.9744 20.5332 10.8134 20.6 10.6454 20.6002Z" fill="white"/>
</g>
<defs>
<clipPath id="clip0_292_467">
<rect width="24" height="24" fill="white" transform="translate(8 8)"/>
</clipPath>
</defs>
</svg>
