<svg width="40" height="40" viewBox="0 0 40 40" fill="none" xmlns="http://www.w3.org/2000/svg">
<g id="Frame 1171280873">
<rect x="0.5" y="0.5" width="39" height="39" rx="7.5" fill="#17193B"/>
<rect x="0.5" y="0.5" width="39" height="39" rx="7.5" stroke="#282B4D"/>
<path id="Vector" d="M31.5475 18.931L21.0682 8.45264C20.4653 7.84912 19.4866 7.84912 18.8829 8.45264L16.707 10.6288L19.467 13.389C20.1087 13.1724 20.8441 13.3176 21.3553 13.829C21.8692 14.3435 22.0134 15.0853 21.7914 15.7291L24.4516 18.3894C25.0952 18.1676 25.8377 18.3109 26.3516 18.8257C27.0701 19.544 27.0701 20.708 26.3516 21.4264C25.633 22.1452 24.4692 22.1452 23.7502 21.4264C23.21 20.8858 23.0763 20.092 23.35 19.4263L20.869 16.9453L20.8688 23.4741C21.044 23.5608 21.2093 23.6765 21.3552 23.8219C22.0735 24.5401 22.0735 25.7038 21.3552 26.4232C20.6368 27.1414 19.4724 27.1414 18.7547 26.4232C18.0363 25.7039 18.0363 24.5402 18.7547 23.8219C18.9322 23.6447 19.1376 23.5105 19.3568 23.4206V16.8311C19.1375 16.7416 18.9323 16.6084 18.7545 16.4298C18.2104 15.8861 18.0793 15.0874 18.3584 14.4192L15.6375 11.6978L8.45277 18.8826C7.84908 19.4866 7.84908 20.4654 8.45277 21.0689L18.9314 31.5474C19.5347 32.1509 20.5131 32.1509 21.1172 31.5474L31.5474 21.1184C32.1509 20.5146 32.1509 19.5356 31.5474 18.9319" fill="#F05133"/>
</g>
</svg>
