<svg width="40" height="40" viewBox="0 0 40 40" fill="none" xmlns="http://www.w3.org/2000/svg">
<g id="Frame 1171280874">
<rect x="0.5" y="0.5" width="39" height="39" rx="7.5" fill="#17193B"/>
<rect x="0.5" y="0.5" width="39" height="39" rx="7.5" stroke="#282B4D"/>
<path id="Vector" d="M30.9875 18.5857C30.9516 18.1211 30.8734 17.6609 30.7538 17.2109C30.4228 15.947 29.8126 14.7758 28.9691 13.7857C28.7831 13.5426 28.5756 13.3171 28.3493 13.112C28.6846 11.7629 27.9345 10.5954 27.9345 10.5954C26.6408 10.5166 25.8399 10.9846 25.53 11.2177C25.4775 11.192 25.425 11.1663 25.3742 11.1663C25.1676 11.0874 24.9339 10.9846 24.702 10.9314C24.4683 10.8543 24.2363 10.8029 24.0026 10.7257C23.7706 10.6726 23.5116 10.6211 23.2525 10.568C23.2017 10.568 23.1746 10.568 23.1238 10.5423C22.5549 8.75429 20.9513 8 20.9513 8C19.1666 9.14171 18.8042 10.7497 18.8042 10.7497C18.8042 10.7497 18.8042 10.7754 18.7771 10.8526L18.4672 10.9314C18.3385 10.9829 18.1828 11.0343 18.0541 11.0617C17.9237 11.1131 17.7696 11.1646 17.6392 11.216C17.3801 11.3463 17.0974 11.4766 16.8383 11.6069C16.5792 11.7611 16.3201 11.9171 16.0882 12.0731C16.0611 12.0474 16.0374 12.0474 16.0374 12.0474C13.5533 11.1131 11.3537 12.2806 11.3537 12.2806C11.1471 14.9274 12.3358 16.6143 12.5949 16.9263C12.5441 17.0806 12.4933 17.2623 12.4408 17.4183C12.2602 18.0307 12.1216 18.6551 12.0259 19.2869C12.0259 19.3897 12.0005 19.4686 12.0005 19.5714C9.67224 20.6617 9 22.9966 9 22.9966C10.9134 25.2029 13.1655 25.3571 13.1655 25.3571C13.4483 25.8766 13.7853 26.3429 14.1476 26.8109C14.3034 26.9926 14.4575 27.1743 14.6387 27.356C14.2246 28.5551 14.2614 29.8666 14.742 31.04C16.8891 31.1171 18.2861 30.1057 18.5705 29.8726C18.7771 29.9497 19.0108 30.0029 19.2174 30.0543C19.8642 30.236 20.5381 30.3131 21.2087 30.3646H22.0384C23.0459 31.8183 24.8053 32 24.8053 32C26.0718 30.6766 26.1243 29.3531 26.1243 29.0686V29.0429V28.9914V28.94C26.3834 28.7566 26.6408 28.5491 26.8745 28.34C27.3685 27.8811 27.8109 27.3682 28.1935 26.8109C28.2189 26.7594 28.2714 26.708 28.2968 26.6566C29.7192 26.7337 30.7284 25.7737 30.7284 25.7737C30.4947 24.2943 29.6413 23.5674 29.4601 23.4114L29.4347 23.3857H29.4093C29.4093 23.3857 29.3839 23.3857 29.3839 23.36C29.3839 23.2829 29.4093 23.1783 29.4093 23.1011C29.4093 22.9451 29.4347 22.7891 29.4347 22.6074V22.4V22.1154V21.9851V21.7246L29.4093 21.596C29.3839 21.44 29.3585 21.2583 29.306 21.1023C29.1615 20.47 28.9167 19.8656 28.5813 19.3126C28.2475 18.7711 27.838 18.2815 27.3655 17.8589C26.9056 17.4589 26.3919 17.127 25.8399 16.8731C25.3065 16.6308 24.7393 16.4736 24.1584 16.4069C23.8739 16.3811 23.5895 16.3554 23.305 16.3554H23.1729H22.8918C22.736 16.3811 22.6057 16.3811 22.4516 16.4069C21.8826 16.5097 21.3645 16.7171 20.8734 17.0034C20.4078 17.288 19.9929 17.6257 19.6576 18.0406C19.3266 18.4246 19.0637 18.8636 18.8804 19.3383C18.7039 19.7854 18.5993 20.2582 18.5705 20.7389V21.4126C18.5959 21.6474 18.6484 21.8806 18.7009 22.088C18.8296 22.5303 19.0108 22.9194 19.2699 23.2297C19.5018 23.5674 19.8117 23.8263 20.1233 24.0611C20.4332 24.2669 20.7701 24.4246 21.1054 24.5274C21.4424 24.6303 21.7522 24.6577 22.0621 24.6577H22.4753C22.5278 24.6577 22.5549 24.6577 22.5803 24.632C22.6057 24.632 22.6582 24.6063 22.6836 24.6063C22.7614 24.5789 22.8122 24.5789 22.8901 24.5549L23.2796 24.3971C23.3999 24.344 23.5127 24.2748 23.6149 24.1914C23.6403 24.164 23.6657 24.14 23.6928 24.14C23.7189 24.1212 23.7407 24.0968 23.7565 24.0685C23.7723 24.0402 23.7818 24.0087 23.7842 23.9763C23.7866 23.9439 23.782 23.9114 23.7705 23.881C23.7591 23.8506 23.7412 23.8232 23.7182 23.8006C23.6403 23.6977 23.5116 23.672 23.4083 23.7491C23.3829 23.7749 23.3575 23.7749 23.3304 23.8006C23.2525 23.852 23.1492 23.8794 23.0459 23.9034L22.736 23.9823C22.6852 23.9823 22.6328 24.008 22.5803 24.008H22.0892C21.5692 23.9412 21.0818 23.7151 20.6922 23.36C20.4848 23.175 20.3096 22.956 20.1741 22.712C20.0371 22.4515 19.9411 22.171 19.8896 21.8806C19.8642 21.7263 19.8642 21.596 19.8642 21.44V21.2583V21.2069C19.8642 21.128 19.8896 21.0509 19.8896 20.9737C19.9929 20.3497 20.3299 19.7274 20.8209 19.2594C20.9513 19.1309 21.08 19.0263 21.2104 18.9491C21.3391 18.8463 21.4932 18.7674 21.6489 18.6903C21.8047 18.6114 21.9588 18.56 22.14 18.5086C22.3076 18.455 22.4824 18.4284 22.6582 18.4297H23.2017C23.3829 18.4554 23.5895 18.4811 23.7706 18.5086C24.133 18.5857 24.4937 18.7143 24.8307 18.9234C25.5029 19.2869 26.0718 19.8834 26.4342 20.5846C26.6154 20.9463 26.7441 21.3097 26.7966 21.6989C26.822 21.8017 26.822 21.9063 26.822 21.9851V22.6074C26.822 22.7103 26.7966 22.8149 26.7966 22.9194C26.7966 23.0223 26.7712 23.1251 26.7458 23.2297L26.6679 23.5417C26.6171 23.7491 26.5375 23.9566 26.4596 24.164C26.2988 24.5683 26.0907 24.9516 25.8399 25.3057C25.0608 26.3781 23.9016 27.1031 22.6057 27.3286C22.3991 27.356 22.1654 27.38 21.9588 27.4074H21.6235C21.5203 27.4074 21.3899 27.4074 21.2866 27.3817C20.8212 27.3483 20.361 27.2615 19.915 27.1229C19.4768 26.9926 19.0526 26.8186 18.6484 26.6034C17.4264 25.9464 16.4263 24.9345 15.7766 23.6977C15.5752 23.2896 15.4109 22.8639 15.2855 22.4257C15.1568 21.9851 15.1043 21.5446 15.0535 21.1023V20.5846V20.4286C15.0535 20.1954 15.0789 19.9863 15.1043 19.7531C15.1297 19.52 15.1822 19.2869 15.2076 19.0794C15.2584 18.8446 15.3109 18.6371 15.3634 18.404C15.4874 17.9695 15.643 17.5449 15.8291 17.1337C16.1914 16.328 16.6825 15.6029 17.2768 15.032C17.4326 14.876 17.5884 14.7457 17.7425 14.6154C17.8983 14.4869 18.0541 14.3823 18.2336 14.2537C18.4028 14.144 18.5756 14.0399 18.7517 13.9417C18.8296 13.8903 18.9329 13.8646 19.0108 13.8114C19.0507 13.7875 19.0942 13.7702 19.1395 13.76C19.18 13.7359 19.224 13.7186 19.2699 13.7086C19.451 13.6297 19.6576 13.5526 19.8388 13.5011C19.8896 13.4754 19.9404 13.4754 19.9929 13.4497C20.0437 13.4223 20.0962 13.4223 20.1487 13.3983C20.252 13.3709 20.3553 13.3451 20.4332 13.3194C20.484 13.2937 20.5364 13.2937 20.5889 13.2937C20.6397 13.2937 20.6905 13.2663 20.743 13.2663C20.7938 13.2663 20.8463 13.2406 20.8988 13.2406L20.9767 13.2149H21.0546C21.1054 13.2149 21.1562 13.1891 21.2087 13.1891C21.2595 13.1891 21.312 13.1634 21.3899 13.1634C21.4407 13.1634 21.5203 13.1377 21.5711 13.1377H22.8647C23.2542 13.1634 23.6149 13.1891 23.9772 13.2663C24.702 13.3966 25.3996 13.6297 26.021 13.9417C26.6408 14.2537 27.2097 14.6154 27.6754 15.032L27.7533 15.1091L27.8312 15.1863C27.882 15.2377 27.9345 15.2909 28.0124 15.3423L28.1681 15.4983L28.3222 15.6526C28.5305 15.8617 28.7117 16.0949 28.8912 16.328C29.2282 16.7703 29.5126 17.2109 29.7209 17.6514C29.7446 17.6771 29.7446 17.7029 29.7717 17.7303C29.7971 17.756 29.7971 17.7817 29.7971 17.8074L29.875 17.9617L29.9529 18.1194L30.0291 18.2737C30.107 18.4829 30.1849 18.6646 30.2374 18.8446C30.339 19.1309 30.4185 19.3897 30.4693 19.6246C30.4947 19.7017 30.5726 19.7789 30.6759 19.7531C30.6998 19.7538 30.7235 19.7496 30.7457 19.7408C30.7679 19.7319 30.788 19.7186 30.805 19.7016C30.8219 19.6846 30.8353 19.6643 30.8442 19.6419C30.8532 19.6196 30.8576 19.5956 30.8571 19.5714C31.0129 19.1823 31.0129 18.8977 30.9875 18.5857Z" fill="url(#paint0_linear_292_519)"/>
</g>
<defs>
<linearGradient id="paint0_linear_292_519" x1="20.0098" y1="37.3863" x2="20.0098" y2="15.4674" gradientUnits="userSpaceOnUse">
<stop stop-color="#FFF200"/>
<stop offset="1" stop-color="#F15A29"/>
</linearGradient>
</defs>
</svg>
