<svg width="19" height="26" viewBox="0 0 19 26" fill="none" xmlns="http://www.w3.org/2000/svg">
<g id="g3393">
<path id="path22" fill-rule="evenodd" clip-rule="evenodd" d="M18.6842 12.5284C18.6842 17.6796 14.5655 21.8555 9.48471 21.8555C4.40404 21.8555 0.285288 17.6796 0.285288 12.5284C0.285288 7.37702 4.40404 3.20103 9.48471 3.20103C14.5655 3.20103 18.6842 7.37702 18.6842 12.5284Z" fill="#D33833"/>
<path id="path24" d="M0.66265 14.8386C0.66265 14.8386 -0.00332831 5.1119 9.03851 4.83396L8.40773 3.79181L3.50135 5.42455L2.0995 7.02247L0.872924 9.35001L0.171955 12.0596L0.382229 13.866" fill="#EF3D3A"/>
<path id="path26" d="M3.18442 6.16591C1.57036 7.80292 0.57156 10.0631 0.57156 12.5636C0.57156 15.0635 1.57036 17.324 3.18442 18.9607C4.79927 20.5974 7.02476 21.6073 9.48514 21.6073C11.9456 21.6073 14.1712 20.5974 15.7859 18.9607C17.3999 17.324 18.3989 15.0635 18.3989 12.5636C18.3989 10.0631 17.3999 7.80292 15.7859 6.16591C14.1712 4.52953 11.9456 3.51958 9.48514 3.51937C7.02476 3.51958 4.79927 4.52953 3.18442 6.16591ZM2.77586 19.3566C1.06049 17.6177 0 15.2145 0 12.5636C0 9.91223 1.06049 7.50924 2.77586 5.77021C4.49084 4.03086 6.8648 2.95276 9.48514 2.95307C12.1055 2.95276 14.4797 4.03086 16.1944 5.77021C17.9099 7.50924 18.9705 9.91244 18.9703 12.5636C18.9705 15.2145 17.9099 17.6177 16.1944 19.3566C14.4797 21.0959 12.1055 22.1738 9.48514 22.1738C6.8648 22.1738 4.49084 21.0959 2.77586 19.3566Z" fill="#231F20"/>
<path id="path28" fill-rule="evenodd" clip-rule="evenodd" d="M13.3573 12.5805L11.9554 12.789L10.0629 12.9974L8.83625 13.0321L7.64476 12.9974L6.73351 12.7194L5.92745 11.851L5.29663 10.0794L5.15646 9.69721L4.31536 9.41938L3.82471 8.62036L3.47426 7.474L3.85982 6.46655L4.77094 6.15391L5.5069 6.50136L5.85743 7.26557L6.27798 7.19606L6.4181 7.02243L6.27798 6.22342L6.24286 5.21597L6.45313 3.82648L6.44492 3.03278L7.08396 2.02012L8.20543 1.22111L10.168 0.387386L12.3408 0.700031L14.2333 2.05482L15.1095 3.44432L15.6702 4.45177L15.8104 6.95292L15.3898 9.10673L14.6188 11.0173L13.8829 12.0247" fill="#F0D6B7"/>
<path id="path30" fill-rule="evenodd" clip-rule="evenodd" d="M12.1652 18.59L7.1536 18.7985V19.6322L7.57415 22.5502L7.36388 22.7934L3.85936 21.6123L3.61397 21.1954L3.26353 17.2701L2.45759 14.9078L2.28231 14.352L5.08589 12.4415L5.9621 12.094L6.73305 13.0319L7.39891 13.6225L8.16998 13.8657L8.52038 13.9699L8.94093 15.7762L9.25634 16.1584L10.0625 15.8805L9.50165 16.9574L12.5506 18.3816L12.1652 18.59Z" fill="#335061"/>
<path id="path32" fill-rule="evenodd" clip-rule="evenodd" d="M3.86072 6.46674L4.77184 6.15409L5.5078 6.50154L5.85833 7.26575L6.27888 7.19624L6.38401 6.77938L6.17374 5.98047L6.38401 4.06979L6.20873 3.02765L6.83955 2.29814L8.20634 1.22129L7.82082 0.700214L5.89332 1.63815L5.08725 2.26344L4.63167 3.23608L3.93074 4.17401L3.72047 5.28567L3.86072 6.46674Z" fill="#6D6B6D"/>
<path id="path34" fill-rule="evenodd" clip-rule="evenodd" d="M5.29634 3.20123C5.29634 3.20123 5.82202 1.91595 7.92477 1.29066C10.0275 0.665367 8.0299 0.838989 8.0299 0.838989L5.752 1.70752L4.87579 2.57594L4.49036 3.27074L5.29634 3.20123Z" fill="#DCD9D8"/>
<path id="path36" fill-rule="evenodd" clip-rule="evenodd" d="M4.24616 6.22342C4.24616 6.22342 3.5102 3.79167 6.31387 3.44432L6.20873 3.02746L4.28127 3.47913L3.72047 5.28548L3.86072 6.46655L4.24616 6.22342Z" fill="#DCD9D8"/>
<path id="path38" fill-rule="evenodd" clip-rule="evenodd" d="M5.36576 9.45401L5.82463 9.01329C5.82463 9.01329 6.03174 9.03715 6.06673 9.28029C6.10172 9.52352 6.20686 11.712 7.71381 12.8932C7.85127 13.001 6.59242 12.7194 6.59242 12.7194L5.4709 10.9825" fill="#F7E4CD"/>
<path id="path40" fill-rule="evenodd" clip-rule="evenodd" d="M11.8158 8.79404C11.8158 8.79404 11.8975 7.74106 12.1836 7.82203C12.4696 7.90301 12.4696 8.18658 12.4696 8.18658C12.4696 8.18658 11.7749 8.6321 11.8158 8.79404Z" fill="#F7E4CD"/>
<path id="path42" d="M14.7262 4.93769C14.7262 4.93769 14.1486 5.05857 14.0954 5.56297C14.0422 6.06748 14.7262 5.66719 14.8314 5.63249" fill="#F7E4CD"/>
<path id="path44" d="M10.4826 4.97299C10.4826 4.97299 9.71152 5.07721 9.71152 5.56347C9.71152 6.04984 10.5878 6.01514 10.833 5.80671" fill="#F7E4CD"/>
<path id="path46" fill-rule="evenodd" clip-rule="evenodd" d="M5.71699 7.23123C5.71699 7.23123 4.3852 6.43221 4.24507 7.19653C4.1049 7.96073 3.78941 8.51662 4.45535 9.31553L3.99977 9.17661L3.57922 8.09976L3.43909 7.05761L4.24507 6.22378L5.15627 6.2933L5.68196 6.71016L5.71699 7.23123Z" fill="#F7E4CD"/>
<path id="path48" fill-rule="evenodd" clip-rule="evenodd" d="M6.34713 5.04207C6.34713 5.04207 6.94292 1.98513 9.95691 1.39455C12.4383 0.908384 13.7418 1.49876 14.2324 2.05454C14.2324 2.05454 12.0246 -0.550728 9.92179 0.248183C7.81905 1.0472 6.27711 2.50621 6.3121 3.44404C6.37177 5.04144 6.34713 5.04207 6.34713 5.04207Z" fill="#F7E4CD"/>
<path id="path50" fill-rule="evenodd" clip-rule="evenodd" d="M14.4795 2.40185C14.4795 2.40185 13.4632 2.36714 13.4281 3.27037C13.4281 3.27037 13.428 3.40929 13.4981 3.54821C13.4981 3.54821 14.3043 2.64498 14.7949 3.13135" fill="#F7E4CD"/>
<path id="path52" fill-rule="evenodd" clip-rule="evenodd" d="M10.028 3.64296C10.028 3.64296 9.85306 2.25659 8.66061 3.06259C7.88962 3.58366 7.95977 4.31317 8.09989 4.45209C8.24006 4.59111 8.20195 4.87093 8.30865 4.67886C8.41531 4.48679 8.38019 3.8615 8.76575 3.68788C9.15127 3.51415 9.78323 3.3201 10.028 3.64296Z" fill="#F7E4CD"/>
<path id="path54" fill-rule="evenodd" clip-rule="evenodd" d="M6.73305 13.0319L3.43881 14.491C3.43881 14.491 4.8056 19.8754 4.10463 21.5429L3.61397 21.3692L3.57894 19.3196L2.66786 15.429L2.28231 14.352L5.71671 12.0594L6.73305 13.0319Z" fill="#49728B"/>
<path id="path56" fill-rule="evenodd" clip-rule="evenodd" d="M7.07266 16.0102L7.54002 16.5755V18.6598H6.97922C6.97922 18.6598 6.9092 17.2007 6.9092 17.027C6.9092 16.8533 6.97922 16.228 6.97922 16.228" fill="#49728B"/>
<path id="path58" fill-rule="evenodd" clip-rule="evenodd" d="M7.08351 18.9725L5.50645 19.0419L5.96212 19.3546L7.08351 19.5283" fill="#49728B"/>
<path id="path60" fill-rule="evenodd" clip-rule="evenodd" d="M12.4823 18.6252L13.779 18.5904L14.0944 21.7864L12.7626 21.96L12.4823 18.6252Z" fill="#335061"/>
<path id="path62" fill-rule="evenodd" clip-rule="evenodd" d="M12.8302 18.6245L14.7927 18.5203C14.7927 18.5203 15.5987 16.5055 15.5987 16.4013C15.5987 16.2971 16.2997 13.4833 16.2997 13.4833L14.7226 11.8507L14.4072 11.5727L13.5661 12.4064V15.6371L12.8302 18.6245Z" fill="#335061"/>
<path id="path64" fill-rule="evenodd" clip-rule="evenodd" d="M13.7089 18.3819L12.4823 18.625L12.6575 19.5978C13.1131 19.8062 13.8841 19.2503 13.8841 19.2503" fill="#49728B"/>
<path id="path66" fill-rule="evenodd" clip-rule="evenodd" d="M13.7446 12.3024L16.1978 14.1088L16.2679 13.275L14.4105 11.5729L13.7446 12.3024Z" fill="#49728B"/>
<path id="path68" fill-rule="evenodd" clip-rule="evenodd" d="M8.30177 25.469L7.5762 22.5505L7.21533 20.3972L7.15565 18.7988L10.4396 18.6255L12.4827 18.6252L12.2969 22.273L12.6123 25.0868L12.5773 25.6079L9.9139 25.8163L8.30177 25.469Z" fill="white"/>
<path id="path70" fill-rule="evenodd" clip-rule="evenodd" d="M12.0248 18.5901C12.0248 18.5901 11.8496 22.203 12.3753 24.7735C12.3753 24.7735 11.324 25.4336 9.78187 25.6072L12.7257 25.503L13.0762 25.2946L12.6556 19.5976L12.5505 18.3816" fill="#DCD9D8"/>
<path id="path72" fill-rule="evenodd" clip-rule="evenodd" d="M14.1549 21.5087L15.5217 21.1265L18.115 20.9876L18.5006 19.8065L17.7996 17.7569L16.9936 17.6527L15.8721 18.0001L14.7962 18.5208L14.225 18.4169L13.7798 18.5903" fill="white"/>
<path id="path74" fill-rule="evenodd" clip-rule="evenodd" d="M14.1276 20.8134C14.1276 20.8134 15.0387 20.3966 15.179 20.4313L14.7936 18.5206L15.2491 18.347C15.2491 18.347 15.5645 20.1533 15.5645 20.3618C15.5645 20.3618 17.527 20.466 17.7023 20.466C17.7023 20.466 18.1228 19.667 18.0177 18.8333L18.4032 19.9449L18.4382 20.5702L17.8776 21.4039L17.2467 21.5429L16.1954 21.5081L15.8449 21.0566L14.6183 21.2302L14.2328 21.3692" fill="#DCD9D8"/>
<path id="path76" d="M12.7502 18.347L11.9792 16.4017L11.1731 15.2553C11.1731 15.2553 11.3483 14.7689 11.5937 14.7689C11.8391 14.7689 12.3998 14.7689 12.3998 14.7689L13.1707 15.0469L13.1007 16.3322L12.7502 18.347Z" fill="white"/>
<path id="path78" fill-rule="evenodd" clip-rule="evenodd" d="M12.9018 17.6869C12.9018 17.6869 11.9205 15.8112 11.9205 15.5332C11.9205 15.5332 12.0957 15.1164 12.341 15.2206C12.5864 15.3248 13.1121 15.6027 13.1121 15.6027V14.9427L11.9205 14.6994L11.1145 14.8036L12.4813 17.9996L12.7616 18.0344" fill="#DCD9D8"/>
<path id="path80" d="M8.61571 13.1019L7.64483 12.9973L6.73358 12.7193V13.032L7.17882 13.5186L8.58063 14.1439" fill="white"/>
<path id="path82" fill-rule="evenodd" clip-rule="evenodd" d="M7.04951 13.2061C7.04951 13.2061 8.136 13.6577 8.48644 13.5535L8.5213 13.97L7.54021 13.7619L6.94437 13.3451L7.04951 13.2061Z" fill="#DCD9D8"/>
<path id="path84" fill-rule="evenodd" clip-rule="evenodd" d="M14.1482 14.8874C13.5535 14.8701 13.0163 14.8001 12.5459 14.6686C12.5779 14.4775 12.518 14.2899 12.5661 14.1522C12.6972 14.0586 12.9169 14.0601 13.1151 14.0381C12.9437 13.9546 12.703 13.9216 12.5052 13.9698C12.5006 13.8372 12.4406 13.7549 12.4042 13.6511C12.7385 13.5329 13.5278 12.7574 13.9718 13.0142C14.1833 13.1363 14.2732 13.8339 14.2896 14.1731C14.3033 14.4545 14.2638 14.7384 14.1482 14.8874Z" fill="#D33833"/>
<path id="path86" d="M14.1482 14.8874C13.5535 14.8701 13.0163 14.8001 12.5459 14.6686C12.5779 14.4775 12.518 14.2899 12.5661 14.1522C12.6972 14.0586 12.9169 14.0601 13.1151 14.0381C12.9437 13.9546 12.703 13.9216 12.5052 13.9698C12.5006 13.8372 12.4406 13.7549 12.4042 13.6511C12.7385 13.5329 13.5278 12.7574 13.9718 13.0142C14.1833 13.1363 14.2732 13.8339 14.2896 14.1731C14.3033 14.4545 14.2638 14.7384 14.1482 14.8874Z" stroke="#D33833" stroke-width="2.5"/>
<path id="path88" fill-rule="evenodd" clip-rule="evenodd" d="M11.3052 13.9236C11.3036 13.9682 11.3017 14.0131 11.3 14.0581C11.1143 14.179 10.8145 14.1776 10.6108 14.2792C10.9112 14.2922 11.1476 14.3639 11.3522 14.465C11.3477 14.5773 11.3434 14.6896 11.339 14.8019C10.9986 15.0328 10.6877 15.3768 10.287 15.5933C10.0976 15.6957 9.43268 15.9593 9.23112 15.9127C9.11707 15.8865 9.1068 15.7462 9.06121 15.614C8.96409 15.3308 8.74046 14.8801 8.72096 14.4538C8.69612 13.9155 8.64129 13.0132 9.22661 13.124C9.69882 13.2134 10.248 13.429 10.6136 13.627C10.837 13.7481 10.9663 13.8977 11.3052 13.9236Z" fill="#D33833"/>
<path id="path90" d="M11.3052 13.9236C11.3036 13.9682 11.3017 14.0131 11.3 14.0581C11.1143 14.179 10.8145 14.1776 10.6108 14.2792C10.9112 14.2922 11.1476 14.3639 11.3522 14.465C11.3477 14.5773 11.3434 14.6896 11.339 14.8019C10.9986 15.0328 10.6877 15.3768 10.287 15.5933C10.0976 15.6957 9.43268 15.9593 9.23112 15.9127C9.11707 15.8865 9.1068 15.7462 9.06121 15.614C8.96409 15.3308 8.74046 14.8801 8.72096 14.4538C8.69612 13.9155 8.64129 13.0132 9.22661 13.124C9.69882 13.2134 10.248 13.429 10.6136 13.627C10.837 13.7481 10.9663 13.8977 11.3052 13.9236Z" stroke="#D33833" stroke-width="2.5"/>
<path id="path92" fill-rule="evenodd" clip-rule="evenodd" d="M11.6422 14.5664C11.5903 14.2731 11.5302 14.1894 11.5535 13.9336C12.3425 13.4121 12.4906 14.8293 11.6422 14.5664Z" fill="#D33833"/>
<path id="path94" d="M11.6422 14.5664C11.5903 14.2731 11.5302 14.1894 11.5535 13.9336C12.3425 13.4121 12.4906 14.8293 11.6422 14.5664Z" stroke="#D33833" stroke-width="2.5"/>
<path id="path96" fill-rule="evenodd" clip-rule="evenodd" d="M12.7854 14.8044C12.7854 14.8044 12.54 14.4569 12.7153 14.3527C12.8906 14.2485 13.0658 14.3528 13.171 14.1791C13.2761 14.0054 13.171 13.9012 13.206 13.6927C13.241 13.4843 13.4164 13.4495 13.5915 13.4148C13.7667 13.3801 14.2574 13.3106 14.3275 13.4843L14.1172 12.859L13.6966 12.7201L12.3649 13.4843L12.2947 13.8665V14.6307" fill="#EF3D3A"/>
<path id="path98" fill-rule="evenodd" clip-rule="evenodd" d="M9.10843 15.9504C9.06634 15.4083 9.02178 14.8669 8.97221 14.3253C8.89803 13.5166 9.16818 13.6577 9.8754 13.6577C9.98342 13.6577 10.5405 13.7854 10.5803 13.8661C10.7715 14.2531 10.2607 14.1671 10.8005 14.4589C11.2562 14.7052 12.0611 14.3093 11.877 13.7619C11.774 13.6402 11.3402 13.724 11.1847 13.644C10.9109 13.5034 10.6371 13.3627 10.3633 13.222C10.015 13.0428 9.20987 12.7817 8.83848 13.032C7.89746 13.6663 8.89788 15.2513 9.23357 15.9131" fill="#EF3D3A"/>
<path id="path100" fill-rule="evenodd" clip-rule="evenodd" d="M10.0304 3.64272C9.07522 3.4222 8.60059 4.03895 8.31105 4.67862C8.05252 4.6165 8.1554 4.26801 8.2207 4.09043C8.39167 3.62438 9.08069 3.00399 9.64366 3.08809C9.88593 3.12425 10.2138 3.34383 10.0304 3.64272Z" fill="#231F20"/>
<path id="path102" fill-rule="evenodd" clip-rule="evenodd" d="M14.6844 4.72115C14.6994 4.72178 14.7146 4.7223 14.7297 4.72292C14.9455 5.1674 15.1323 5.63824 15.4046 6.03061C15.2222 6.45174 14.0234 6.82442 14.0419 6.06823C14.3011 5.95589 14.7487 6.0453 14.9785 5.9018C14.8456 5.54028 14.6539 5.23253 14.6844 4.72115Z" fill="#231F20"/>
<path id="path104" fill-rule="evenodd" clip-rule="evenodd" d="M10.516 4.73263C10.7208 5.10478 10.7875 5.4958 11.0786 5.77707C11.2097 5.90369 11.4647 6.05803 11.3383 6.41018C11.3088 6.49324 11.0929 6.67843 10.9683 6.7148C10.5132 6.84798 9.45265 6.74231 9.8118 6.17986C10.1882 6.19727 10.6941 6.42216 10.9755 6.15131C10.7594 5.80896 10.3742 5.13167 10.516 4.73263Z" fill="#231F20"/>
<path id="path106" fill-rule="evenodd" clip-rule="evenodd" d="M14.5104 8.51427C13.8251 8.95062 13.061 9.42511 11.9381 9.31506C11.6982 9.10829 11.6067 8.64819 11.8398 8.34429C11.9612 8.55106 11.8849 8.93134 12.2231 8.98855C12.8602 9.09662 13.6017 8.60223 14.06 8.42944C14.3442 7.95453 14.0355 7.77987 13.7795 7.4742C13.2554 6.84798 12.5523 6.07179 12.5779 5.13427C12.7897 4.98201 12.808 5.36667 12.8384 5.4367C13.1121 6.07158 13.8008 6.88352 14.3035 7.42689C14.4269 7.5607 14.6302 7.6891 14.6528 7.77757C14.718 8.03488 14.4832 8.34315 14.5104 8.51427Z" fill="#231F20"/>
<path id="path108" fill-rule="evenodd" clip-rule="evenodd" d="M5.47894 8.05565C5.26414 7.93413 5.21302 7.39888 4.96084 7.38367C4.60047 7.36199 4.66618 8.07805 4.66762 8.49679C4.41956 8.27356 4.37593 7.58626 4.55817 7.23329C4.35048 7.1322 4.25774 7.3448 4.14254 7.41973C4.29059 6.35361 5.71591 6.92523 5.47894 8.05565Z" fill="#231F20"/>
<path id="path110" fill-rule="evenodd" clip-rule="evenodd" d="M14.9472 8.95879C14.6282 9.56063 14.1769 10.2234 13.2409 10.2427C13.2219 10.0484 13.2072 9.75259 13.2419 9.63556C13.9575 9.5674 14.3993 9.2064 14.9472 8.95879Z" fill="#231F20"/>
<path id="path112" fill-rule="evenodd" clip-rule="evenodd" d="M10.4658 9.34842C11.0628 9.6596 12.16 9.69306 12.9714 9.6695C13.015 9.84573 13.0139 10.0634 13.0156 10.2783C11.9725 10.3299 10.7393 10.0741 10.4658 9.34842Z" fill="#231F20"/>
<path id="path114" fill-rule="evenodd" clip-rule="evenodd" d="M10.3519 9.92913C10.7648 10.9566 12.1837 10.8383 13.3803 10.81C13.3276 10.9434 13.2134 11.1009 13.0715 11.1579C12.688 11.3126 11.6305 11.4299 11.0982 11.1497C10.7606 10.9718 10.5437 10.5698 10.3587 10.3342C10.2694 10.2204 9.82459 9.92976 10.3519 9.92913Z" fill="#231F20"/>
<path id="path116" fill-rule="evenodd" clip-rule="evenodd" d="M14.4621 15.5966C13.9777 16.4191 13.5141 17.2639 12.9393 17.9893C13.1803 17.287 13.2834 16.1116 13.3198 15.2154C13.824 14.9816 14.2557 15.2681 14.4621 15.5966Z" fill="#81B0C4"/>
<path id="path118" fill-rule="evenodd" clip-rule="evenodd" d="M17.0693 18.5527C16.5269 18.6603 16.1458 19.1829 15.6166 19.1493C15.9074 18.743 16.417 18.5717 17.0693 18.5527Z" fill="#231F20"/>
<path id="path120" fill-rule="evenodd" clip-rule="evenodd" d="M17.3078 19.3945C16.8657 19.4408 16.3464 19.5117 15.898 19.4752C16.1102 19.1538 16.9281 19.2647 17.3078 19.3945Z" fill="#231F20"/>
<path id="path122" fill-rule="evenodd" clip-rule="evenodd" d="M17.4613 20.1192C16.9644 20.1299 16.3468 20.1201 15.8745 20.0808C16.1539 19.7834 17.139 19.9704 17.4613 20.1192Z" fill="#231F20"/>
<path id="path124" fill-rule="evenodd" clip-rule="evenodd" d="M13.5255 22.105C13.5968 22.7236 13.8442 23.3503 13.8132 24.0277C13.5385 24.1195 13.3807 24.1999 13.0126 24.1994C12.9866 23.6237 12.9089 22.7436 12.9321 22.1948C13.1132 22.2067 13.3801 22.0666 13.5255 22.105Z" fill="#DCD9D8"/>
<path id="path126" fill-rule="evenodd" clip-rule="evenodd" d="M12.7269 12.9887C12.4774 13.1501 12.2649 13.3517 12.0253 13.5241C11.4939 13.5501 11.204 13.4876 10.8136 13.1851C10.82 13.1609 10.8592 13.1717 10.8607 13.1419C11.4295 13.3932 12.1525 13.0396 12.7269 12.9887Z" fill="#F0D6B7"/>
<path id="path128" fill-rule="evenodd" clip-rule="evenodd" d="M9.73888 16.8324C9.89515 16.1611 10.5075 15.8135 11.0636 15.4438C11.6375 16.1659 11.9866 17.0944 12.3709 17.9904C11.4628 17.7191 10.5348 17.2788 9.73888 16.8324Z" fill="#81B0C4"/>
<path id="path130" fill-rule="evenodd" clip-rule="evenodd" d="M12.9331 22.1945C12.9099 22.7433 12.9876 23.6234 13.0136 24.1991C13.3817 24.1995 13.5395 24.1192 13.8142 24.0274C13.8452 23.35 13.5978 22.7233 13.5265 22.1047C13.3811 22.0663 13.1142 22.2064 12.9331 22.1945ZM7.20169 19.0734C7.44441 21.2851 7.79595 23.1444 8.44074 25.1029C9.87179 25.5336 11.597 25.5712 12.8619 25.1825C12.6296 24.0771 12.7311 22.7313 12.5953 21.5517C12.493 20.665 12.5452 19.7729 12.4049 18.8684C10.8722 18.5523 8.70584 18.7945 7.20169 19.0734ZM12.7673 18.8822C12.7544 19.8321 12.8102 20.7691 12.8834 21.7202C13.2514 21.6655 13.5011 21.6289 13.843 21.5546C13.732 20.639 13.7456 19.6087 13.5195 18.7987C13.2581 18.8012 13.028 18.7957 12.7673 18.8822ZM14.6341 18.7291C14.4594 18.6894 14.2561 18.7276 14.0892 18.7308C14.1677 19.5051 14.358 20.3596 14.4249 21.1724C14.6875 21.1805 14.8277 21.0577 15.0437 21.0164C15.0552 20.303 14.9808 19.32 14.6341 18.7291ZM17.4606 21.2889C18.0078 21.1572 18.3519 20.4928 18.1988 19.8106C18.0961 19.352 17.9132 18.4886 17.7174 18.1952C17.5727 17.9783 17.1805 17.6942 16.8673 17.893C16.3578 18.2164 15.4602 18.3103 15.0887 18.7017C15.275 19.3166 15.3328 20.1611 15.4096 20.9402C16.0461 20.9796 16.8293 20.7666 17.3587 20.9926C16.9891 21.1112 16.5096 21.1122 16.1903 21.2851C16.4512 21.41 17.0622 21.3848 17.4606 21.2889ZM12.3716 17.9901C11.9872 17.0941 11.6382 16.1656 11.0642 15.4435C10.5082 15.8132 9.89583 16.1608 9.73955 16.8321C10.5355 17.2785 11.4634 17.7188 12.3716 17.9901ZM13.3191 15.2154C13.2827 16.1115 13.1796 17.287 12.9386 17.9893C13.5134 17.2638 13.9769 16.4191 14.4614 15.5966C14.2549 15.268 13.8232 14.9816 13.3191 15.2154ZM12.245 14.8371C12.0273 14.8139 11.8425 15.0852 11.5593 14.9679C11.4944 15.039 11.4355 15.116 11.3693 15.1854C11.9947 15.9324 12.2789 16.9923 12.7619 17.8702C13.021 17.0269 12.9912 16.103 13.0483 15.1826C12.6922 15.205 12.4946 14.8634 12.245 14.8371ZM11.5544 13.9336C11.5311 14.1894 11.5912 14.2731 11.6431 14.5664C12.4916 14.8293 12.3434 13.4121 11.5544 13.9336ZM10.6135 13.6274C10.2479 13.4294 9.6987 13.2138 9.22648 13.1244C8.64116 13.0135 8.69599 13.9159 8.72084 14.4542C8.74034 14.8805 8.96397 15.3312 9.06109 15.6144C9.10668 15.7466 9.11695 15.8869 9.23099 15.9131C9.43256 15.9597 10.0975 15.6961 10.2869 15.5937C10.6876 15.3772 10.9985 15.0332 11.3388 14.8023C11.3433 14.69 11.3476 14.5777 11.3521 14.4654C11.1475 14.3643 10.911 14.2926 10.6107 14.2796C10.8144 14.178 11.1142 14.1794 11.2998 14.0585C11.3016 14.0135 11.3035 13.9686 11.3051 13.924C10.9661 13.8981 10.8369 13.7485 10.6135 13.6274ZM7.12152 12.9987C6.8181 13.304 7.97255 13.7202 8.34012 13.7426C8.33807 13.5494 8.45121 13.3673 8.42842 13.2287C7.99186 13.1527 7.41812 13.2028 7.12152 12.9987ZM10.8593 13.1421C10.8578 13.1719 10.8186 13.161 10.8122 13.1853C11.2026 13.4877 11.4926 13.5503 12.0239 13.5242C12.2635 13.3518 12.476 13.1503 12.7255 12.9889C12.1511 13.0397 11.4281 13.3933 10.8593 13.1421ZM14.2901 14.1733C14.2737 13.834 14.1839 13.1364 13.9723 13.0143C13.5283 12.7574 12.7391 13.533 12.4047 13.6513C12.4411 13.755 12.5011 13.8373 12.5058 13.9699C12.7035 13.9217 12.9443 13.9547 13.1157 14.0382C12.9175 14.0602 12.6977 14.0587 12.5666 14.1523C12.5186 14.29 12.5784 14.4776 12.5464 14.6687C13.0168 14.8002 13.5541 14.8703 14.1487 14.8876C14.2644 14.7385 14.3038 14.4546 14.2901 14.1733ZM6.6107 13.294C6.51542 13.2267 5.87084 12.3954 5.78254 12.4299C4.61618 12.8858 3.52558 13.6742 2.55101 14.4198C3.4802 16.3962 3.85529 18.8175 3.92157 21.1513C4.986 21.6447 5.92094 22.3561 7.36534 22.4304C7.1982 21.2582 7.04562 20.2124 6.95075 19.1088C6.58782 18.9571 6.06714 19.1157 5.72751 19.0618C5.72463 18.6561 6.24621 18.8841 6.28966 18.6113C6.3224 18.4049 6.00267 18.3893 6.10678 18.0643C6.37229 18.16 6.51173 18.3713 6.79489 18.4507C7.05363 17.8896 6.79128 16.8968 6.82857 16.4278C6.83563 16.3398 6.87292 15.94 7.07191 16.0102C7.24801 16.0723 7.06185 17.0734 7.08115 17.5172C7.09873 17.9261 7.03132 18.3218 7.1984 18.5785C8.59413 18.3902 10.0125 18.2685 11.5226 18.2274C11.1904 18.0861 10.7957 17.9524 10.363 17.7106C10.1284 17.5795 9.38895 17.3068 9.32126 17.0859C9.21326 16.734 9.60464 16.5466 9.67158 16.2449C8.96705 16.6257 8.82959 15.8798 8.66293 15.3513C8.51192 14.8726 8.42596 14.5151 8.38891 14.239C7.78199 13.9522 7.1331 13.6618 6.6107 13.294ZM13.6737 12.5304C14.6455 12.0633 14.8207 14.2761 14.4398 14.989C14.4986 15.2016 14.7011 15.2829 14.7838 15.4741C14.2415 16.437 13.6391 17.3359 13.0858 18.2875C13.4974 18.0335 14.0853 18.242 14.5697 18.0519C14.7468 17.9825 14.8749 17.5808 15.009 17.2594C15.3777 16.3751 15.7648 15.2603 15.937 14.4165C15.9759 14.2242 16.0819 13.8053 16.0581 13.6342C16.0158 13.3278 15.5964 13.1006 15.383 12.9111C14.99 12.5612 14.7426 12.2532 14.3326 11.926C14.1664 12.1692 13.8097 12.3326 13.6737 12.5304ZM4.38824 3.98814C3.92519 4.49316 4.02211 5.43943 4.07817 6.11266C4.91516 5.59075 6.02608 6.15393 6.01561 7.04163C6.41521 7.03111 6.16489 6.54692 6.09261 6.23501C5.85639 5.2162 6.49057 4.10934 6.12136 3.17766C5.4045 3.23154 4.81556 3.52177 4.38824 3.98814ZM7.7015 1.05699C6.65321 1.3515 5.3097 2.10654 4.87894 3.03999C5.21249 2.99195 5.44405 2.8252 5.7731 2.80457C5.89745 2.79655 6.06037 2.85626 6.2033 2.82104C6.48811 2.751 6.72849 2.118 6.94336 1.88248C7.15281 1.65247 7.40456 1.5542 7.57685 1.34452C7.68754 1.29158 7.85119 1.29523 7.85748 1.13046C7.80951 1.0796 7.75899 1.04084 7.7015 1.05699ZM13.1585 1.33399C12.0704 0.725481 10.2287 0.267771 9.07128 0.839702C8.13737 1.30127 6.87497 2.06496 6.44457 3.03269C6.84664 3.96656 6.32548 4.82227 6.29221 5.77042C6.27455 6.27492 6.53185 6.71534 6.55156 7.26455C6.41398 7.48955 5.99363 7.51727 5.70265 7.50184C5.60471 7.016 5.43324 6.46991 4.92851 6.41509C4.21431 6.33766 3.69212 6.92356 3.65967 7.53582C3.62128 8.25584 4.21759 9.4492 5.0628 9.36635C5.3893 9.33436 5.46951 9.00994 5.82525 9.01327C6.01807 9.3946 5.52783 9.51434 5.4774 9.78707C5.46426 9.85752 5.51805 10.1329 5.54934 10.262C5.70286 10.8907 6.0451 11.7044 6.38194 12.1831C6.80947 12.7902 7.64942 12.8817 8.55307 12.9412C8.71446 12.5966 9.30902 12.6249 9.69643 12.7151C9.23215 12.5328 8.80051 12.0909 8.44279 11.6998C8.03189 11.2511 7.61567 10.7697 7.59464 10.1832C8.37113 11.251 9.01263 12.1835 10.4246 12.6532C11.493 13.0083 12.7407 12.4904 13.5617 11.919C13.9023 11.6815 14.1056 11.3046 14.3478 10.9597C15.2537 9.66795 15.6765 7.82418 15.5835 6.03711C15.5453 5.3001 15.547 4.56559 15.2975 4.06974C15.0367 3.55127 14.1548 3.08741 13.6386 3.55638C13.5429 3.05218 14.0679 2.74037 14.6845 2.92181C14.2448 2.35936 13.7834 1.68353 13.1585 1.33399ZM15.1856 17.9633C16.0358 17.5443 17.6245 16.8355 18.1575 17.9648C18.3542 18.3811 18.585 19.0847 18.6869 19.5144C18.8308 20.1206 18.5309 21.3947 17.9022 21.5982C17.347 21.7778 16.6992 21.7669 16.0304 21.6337C15.9516 21.5688 15.8639 21.4556 15.8026 21.3376C15.3251 21.3193 14.878 21.363 14.5007 21.5576C14.5365 21.9077 14.2976 21.9639 14.0737 22.036C13.9077 22.6884 14.4058 23.5405 14.2866 24.1355C14.2015 24.5593 13.6754 24.6249 13.2887 24.7042C13.2761 24.9397 13.3056 25.1363 13.332 25.3356C13.2436 25.6586 12.847 25.8424 12.4713 25.8874C11.235 26.0348 9.35782 26.101 8.16866 25.6771C7.83682 24.8703 7.57541 23.889 7.29901 22.9677C6.13923 23.0905 5.2012 22.4717 4.31691 22.0663C4.01074 21.9256 3.58719 21.8481 3.47281 21.6065C3.36192 21.3726 3.4073 20.9244 3.37979 20.501C3.30977 19.4195 3.24981 18.3765 2.9617 17.2692C2.83234 16.7723 2.60686 16.3338 2.44957 15.8551C2.30418 15.4113 2.05017 14.863 1.98392 14.4205C1.88569 13.7646 2.5087 13.7282 2.90708 13.444C3.52291 13.0045 4.0063 12.7615 4.67326 12.3648C4.8708 12.2474 5.46652 11.95 5.53428 11.8131C5.66898 11.5416 5.30306 11.1588 5.20523 10.946C5.05048 10.6095 4.96977 10.3237 4.9476 9.99164C4.38811 9.904 3.96399 9.57395 3.7078 9.2018C3.28402 8.58589 2.99012 7.4464 3.35678 6.57965C3.38554 6.51139 3.52894 6.37716 3.5501 6.27232C3.59183 6.06587 3.47157 5.79137 3.4641 5.57178C3.42557 4.44522 3.65639 3.47456 4.42151 3.13482C4.73211 1.90832 5.84381 1.50053 6.8912 0.890976C7.28272 0.663162 7.71431 0.517573 8.16003 0.354998C9.75898 -0.228293 12.2122 -0.11845 13.5393 0.876386C14.102 1.29825 15.0014 2.18897 15.3231 2.83385C16.1728 4.53641 16.1125 7.38179 15.5181 9.45285C15.4382 9.7309 15.3224 10.1396 15.1606 10.4736C15.0478 10.7069 14.6971 11.1735 14.7397 11.3795C14.7836 11.5924 15.5392 12.1611 15.7012 12.3159C15.9929 12.5949 16.5472 12.9652 16.5921 13.3172C16.6404 13.6919 16.4256 14.2044 16.3168 14.5659C15.953 15.7724 15.5981 16.8877 15.1856 17.9633Z" fill="#231F20"/>
<path id="path132" fill-rule="evenodd" clip-rule="evenodd" d="M9.51257 9.61163C9.55869 9.55076 9.8123 9.45833 10.1671 9.62768C10.1671 9.62768 9.74659 9.69719 9.78158 10.3922L9.60633 10.3574C9.60633 10.3574 9.42522 9.7272 9.51257 9.61163Z" fill="#F7E4CD"/>
<path id="path134" fill-rule="evenodd" clip-rule="evenodd" d="M12.5867 15.5854C12.5867 15.6909 12.5004 15.7764 12.3939 15.7764C12.2875 15.7764 12.2012 15.6909 12.2012 15.5854C12.2012 15.4799 12.2875 15.3943 12.3939 15.3943C12.5004 15.3943 12.5867 15.4799 12.5867 15.5854Z" fill="#1D1919"/>
<path id="path136" fill-rule="evenodd" clip-rule="evenodd" d="M12.778 16.4717C12.778 16.5771 12.6917 16.6627 12.5852 16.6627C12.4788 16.6627 12.3924 16.5771 12.3924 16.4717C12.3924 16.3662 12.4788 16.2805 12.5852 16.2805C12.6917 16.2805 12.778 16.3662 12.778 16.4717Z" fill="#1D1919"/>
</g>
</svg>
