<svg width="40" height="40" viewBox="0 0 40 40" fill="none" xmlns="http://www.w3.org/2000/svg">
<rect x="0.5" y="0.5" width="39" height="39" rx="7.5" fill="#17193B"/>
<rect x="0.5" y="0.5" width="39" height="39" rx="7.5" stroke="#282B4D"/>
<g clip-path="url(#clip0_292_491)">
<path d="M28 8H12C9.79086 8 8 9.79086 8 12V28C8 30.2091 9.79086 32 12 32H28C30.2091 32 32 30.2091 32 28V12C32 9.79086 30.2091 8 28 8Z" fill="url(#paint0_linear_292_491)"/>
<path fill-rule="evenodd" clip-rule="evenodd" d="M23.9 16.9996C23.4038 16.9996 23 16.5958 23 16.0996C23 15.6034 23.4038 15.1996 23.9 15.1996C24.3962 15.1996 24.8 15.6034 24.8 16.0996C24.8 16.5958 24.3962 16.9996 23.9 16.9996ZM20.9 13.9996C20.4038 13.9996 20 13.5958 20 13.0996C20 12.6034 20.4038 12.1996 20.9 12.1996C21.3962 12.1996 21.8 12.6034 21.8 13.0996C21.8 13.5958 21.3962 13.9996 20.9 13.9996ZM18.5 19.3996C18.0038 19.3996 17.6 18.9958 17.6 18.4996C17.6 18.0034 18.0038 17.5996 18.5 17.5996C18.9962 17.5996 19.4 18.0034 19.4 18.4996C19.4 18.9958 18.9962 19.3996 18.5 19.3996ZM15.5 16.6996C15.0038 16.6996 14.6 16.2958 14.6 15.7996C14.6 15.3034 15.0038 14.8996 15.5 14.8996C15.9962 14.8996 16.4 15.3034 16.4 15.7996C16.4 16.2958 15.9962 16.6996 15.5 16.6996ZM23.9 14.5996C23.5946 14.5996 23.3111 14.6923 23.0741 14.8495L22.1501 13.9255C22.3073 13.6882 22.4 13.405 22.4 13.0996C22.4 12.2725 21.7271 11.5996 20.9 11.5996C20.0729 11.5996 19.4 12.2725 19.4 13.0996C19.4 13.5772 19.6286 13.9987 19.9778 14.2735L18.6089 17.0107C18.5723 17.008 18.5375 16.9996 18.5 16.9996C18.1184 16.9996 17.7728 17.1475 17.5079 17.3833L16.7501 16.6255C16.9073 16.3882 17 16.105 17 15.7996C17 14.9725 16.3271 14.2996 15.5 14.2996C14.6729 14.2996 14 14.9725 14 15.7996C14 16.6267 14.6729 17.2996 15.5 17.2996C15.8054 17.2996 16.0889 17.2069 16.3259 17.0497L17.144 17.8681C17.0543 18.0607 17 18.2734 17 18.4996C17 19.3267 17.6729 19.9996 18.5 19.9996C19.3271 19.9996 20 19.3267 20 18.4996C20 17.9248 19.6715 17.4307 19.1957 17.179L20.5139 14.5429C20.6378 14.5762 20.7659 14.5996 20.9 14.5996C21.2054 14.5996 21.4889 14.5069 21.7259 14.3497L22.6499 15.2737C22.4927 15.511 22.4 15.7942 22.4 16.0996C22.4 16.9267 23.0729 17.5996 23.9 17.5996C24.7271 17.5996 25.4 16.9267 25.4 16.0996C25.4 15.2725 24.7271 14.5996 23.9 14.5996ZM21.9509 23.2996H17.75L16.4 21.4996H23.3144L21.9509 23.2996ZM20.6693 27.7996H19.0307L17.9903 23.8996H21.7097L20.6693 27.7996ZM23.918 20.8996H15.8C15.6863 20.8996 15.5825 20.9638 15.5315 21.0655C15.4811 21.1672 15.4919 21.2887 15.56 21.3796L17.3252 23.7331L18.5102 28.177C18.545 28.3081 18.6641 28.3996 18.8 28.3996H20.9C21.0359 28.3996 21.155 28.3081 21.1898 28.177L22.3748 23.7337L24.1568 21.3808C24.2258 21.2899 24.2372 21.1681 24.1865 21.0661C24.1358 20.9641 24.0317 20.8996 23.918 20.8996Z" fill="white"/>
</g>
<defs>
<linearGradient id="paint0_linear_292_491" x1="8" y1="2408" x2="2408" y2="8" gradientUnits="userSpaceOnUse">
<stop stop-color="#B0084D"/>
<stop offset="1" stop-color="#FF4F8B"/>
</linearGradient>
<clipPath id="clip0_292_491">
<rect width="24" height="24" fill="white" transform="translate(8 8)"/>
</clipPath>
</defs>
</svg>
